<svg xmlns="http://www.w3.org/2000/svg" viewBox="0 0 24 24" fill="none" stroke="currentColor" stroke-width="2" stroke-linecap="round" stroke-linejoin="round">
  <path d="M14.5 9.5L6.25 17.75C5.56 18.44 4.44 18.44 3.75 17.75 3.06 17.06 3.06 15.94 3.75 15.25L12 7" />
  <path d="M12 7l1.5-1.5c1.4-1.4 3.6-1.4 5 0 1.4 1.4 1.4 3.6 0 5L17 12" />
  <path d="M9.5 14.5L17.75 6.25C18.44 5.56 18.44 4.44 17.75 3.75 17.06 3.06 15.94 3.06 15.25 3.75L7 12" />
  <path d="M7 12l-1.5 1.5c-1.4 1.4-1.4 3.6 0 5 1.4 1.4 3.6 1.4 5 0L12 17" />
</svg>
