<?xml version="1.0" encoding="UTF-8" standalone="no"?>
<!-- Creator: CorelDRAW -->

<svg
   xmlns:dc="http://purl.org/dc/elements/1.1/"
   xmlns:cc="http://creativecommons.org/ns#"
   xmlns:rdf="http://www.w3.org/1999/02/22-rdf-syntax-ns#"
   xmlns:svg="http://www.w3.org/2000/svg"
   xmlns="http://www.w3.org/2000/svg"
   xmlns:xlink="http://www.w3.org/1999/xlink"
   xmlns:sodipodi="http://sodipodi.sourceforge.net/DTD/sodipodi-0.dtd"
   xmlns:inkscape="http://www.inkscape.org/namespaces/inkscape"
   xml:space="preserve"
   width="177.94302"
   height="255.58221"
   style="fill-rule:evenodd"
   viewBox="0 0 47.080756 67.622793"
   id="svg2"
   version="1.1"
   inkscape:version="0.92.3 (2405546, 2018-03-11)"
   sodipodi:docname="Logo_of_the_Army_of_the_Republic_of_Bosnia_and_Herzegovina.svg"><sodipodi:namedview
   pagecolor="#ffffff"
   bordercolor="#666666"
   borderopacity="1"
   objecttolerance="10"
   gridtolerance="10"
   guidetolerance="10"
   inkscape:pageopacity="0"
   inkscape:pageshadow="2"
   inkscape:window-width="1920"
   inkscape:window-height="1018"
   id="namedview72"
   showgrid="false"
   inkscape:zoom="2.8284271"
   inkscape:cx="1.4981791"
   inkscape:cy="141.65884"
   inkscape:window-x="-8"
   inkscape:window-y="-8"
   inkscape:window-maximized="1"
   inkscape:current-layer="svg2"
   fit-margin-top="0"
   fit-margin-left="0"
   fit-margin-right="0"
   fit-margin-bottom="0"
   showguides="true"
   inkscape:guide-bbox="true"
   inkscape:lockguides="true" /><metadata
   id="metadata74"><rdf:RDF><cc:Work
       rdf:about=""><dc:format>image/svg+xml</dc:format><dc:type
         rdf:resource="http://purl.org/dc/dcmitype/StillImage" /></cc:Work></rdf:RDF></metadata>
 <defs
   id="defs4">
  <style
   type="text/css"
   id="style6">
   
    .str1 {stroke:#EEC900;stroke-width:0.2}
    .str2 {stroke:#EECA00;stroke-width:1}
    .str0 {stroke:#FFCC00;stroke-width:1.4}
    .fil5 {fill:white}
    .fil3 {fill:#0064A5}
    .fil0 {fill:#EEC900}
    .fil4 {fill:#EEC900;fill-rule:nonzero}
    .fil1 {fill:url(#id0)}
    .fil2 {fill:url(#id1)}
   
  </style>
  <linearGradient
   id="id0"
   gradientUnits="userSpaceOnUse"
   x1="24.2764"
   y1="45.6973"
   x2="22.7775"
   y2="44.1982">
   <stop
   offset="0"
   style="stop-color:#eec900"
   id="stop9" />
   <stop
   offset="0.478431"
   style="stop-color:#eed12e"
   id="stop11" />
   <stop
   offset="1"
   style="stop-color:#eed95c"
   id="stop13" />
  </linearGradient>
  <linearGradient
   id="id1"
   gradientUnits="userSpaceOnUse"
   xlink:href="#id0"
   x1="34.2225"
   y1="45.697201"
   x2="32.723598"
   y2="44.198299">
  </linearGradient>
 <clipPath
   clipPathUnits="userSpaceOnUse"
   id="clipPath3053"><rect
     style="fill:#666666"
     id="rect3055"
     width="49.137932"
     height="69.871735"
     x="3.955004"
     y="4.974772" /></clipPath><linearGradient
   inkscape:collect="always"
   xlink:href="#id0"
   id="linearGradient3023"
   gradientUnits="userSpaceOnUse"
   x1="24.2764"
   y1="45.6973"
   x2="22.7775"
   y2="44.1982" /><linearGradient
   id="id0-186"
   gradientUnits="userSpaceOnUse"
   x1="24.2764"
   y1="45.6973"
   x2="22.7775"
   y2="44.1982">
   <stop
   offset="0"
   style="stop-color:#eec900"
   id="stop3902" />
   <stop
   offset="0.478431"
   style="stop-color:#eed12e"
   id="stop3904" />
   <stop
   offset="1"
   style="stop-color:#eed95c"
   id="stop3906" />
  </linearGradient>
  <linearGradient
   id="id1-190"
   gradientUnits="userSpaceOnUse"
   xlink:href="#id0-643"
   x1="34.2225"
   y1="45.697201"
   x2="32.723598"
   y2="44.198299"
   gradientTransform="matrix(3.7795277,0,0,3.7795277,-18.745031,-22.073985)">
  </linearGradient>
 <linearGradient
   id="id0-643"
   gradientUnits="userSpaceOnUse"
   x1="24.2764"
   y1="45.6973"
   x2="22.7775"
   y2="44.1982">
   <stop
   offset="0"
   style="stop-color:#eec900"
   id="stop3910" />
   <stop
   offset="0.478431"
   style="stop-color:#eed12e"
   id="stop3912" />
   <stop
   offset="1"
   style="stop-color:#eed95c"
   id="stop3914" />
  </linearGradient>
  <style
   id="style1985"
   type="text/css" /><linearGradient
   gradientUnits="userSpaceOnUse"
   xlink:href="#id0"
   id="id1-4"
   y2="44.198299"
   x2="32.723598"
   y1="45.697201"
   x1="34.2225">
  </linearGradient></defs>
 <g
   id="Layer_x0020_1"
   clip-path="url(#clipPath3053)"
   transform="matrix(0.9960274,0,0,0.9960274,-4.7532879,-5.6907658)">
  <metadata
   id="CorelCorpID_0Corel-Layer" />
  
  
  
  
  
  <g
   id="_37240080"
   transform="matrix(0.99913821,0,0,0.99913821,-0.11073236,0.01335995)">
   <path
   id="_110212208"
   class="fil0"
   d="M 5.8,71.6696 16.4632,61.0058 c 0.4924,-0.4918 1.4245,-0.4865 1.4248,-0.4861 3e-4,2e-4 0.0655,0.9922 -0.4333,1.4775 C 17.0033,62.4363 6.8275,72.6379 6.8275,72.6379 Z"
   inkscape:connector-curvature="0"
   style="fill:#eec900" />
   <path
   style="fill:url(#id1-190);stroke-width:3.77952766"
   d="M 0.2421875,76.757812 C 0.23878593,76.761214 -0.52126656,88.337134 5.2988281,94 8.3007257,96.920462 43.946305,132.62339 77.677734,166.42383 l -40.816406,40.81836 11.990234,11.29883 c 0,0 22.360901,-22.41096 40.414063,-40.50391 17.796045,17.83535 40.033205,40.12109 40.033205,40.12109 l 11.99023,-11.29882 -40.43359,-40.4375 c 33.6095,-33.67805 69.01101,-69.136919 71.99609,-72.041021 5.8201,-5.662866 5.06004,-17.236832 5.05664,-17.240234 -0.004,-0.0045 -10.87974,-0.06658 -16.625,5.671875 L 89.265625,154.83398 16.867188,82.429688 C 11.121927,76.691231 0.24634498,76.753277 0.2421875,76.757812 Z"
   transform="matrix(0.26458332,0,0,0.26458332,4.9596226,5.8404084)"
   id="_36631032"
   inkscape:connector-curvature="0" />
   <path
   id="_35395864"
   class="fil0"
   d="m 16.2358,62.0132 4.9592,4.9598 c 0.2212,0.2487 0.1645,0.4632 -0.0461,0.6734 -0.2106,0.2103 -0.4599,0.3025 -0.7092,0.082 -0.2494,-0.2204 -5.1896,-4.6462 -5.1896,-4.6462 -9e-4,-9e-4 0.9832,-1.0721 0.9857,-1.069 z"
   inkscape:connector-curvature="0"
   style="fill:#eec900" />
   <path
   id="_36566568"
   class="fil0"
   d="m 7.211,68.93 c 1.2432,0 2.2514,1.015 2.2514,2.2666 0,1.2515 -1.0082,2.2666 -2.2514,2.2666 -1.2431,0 -2.2513,-1.0151 -2.2513,-2.2666 0,-1.2516 1.0082,-2.2666 2.2513,-2.2666 z"
   inkscape:connector-curvature="0"
   style="fill:#eec900" />
   <path
   id="_37238512"
   class="fil0"
   d="m 15.2735,63.1043 -5.0017,-4.9171 c -0.2233,-0.2467 -0.1685,-0.4616 0.0403,-0.6737 0.2088,-0.2121 0.4573,-0.3064 0.7086,-0.0881 0.2512,0.2182 5.2293,4.6014 5.2293,4.6014 9e-4,10e-4 -0.974,1.0806 -0.9765,1.0775 z"
   inkscape:connector-curvature="0"
   style="fill:#eec900" />
  </g>
  <path
   class="fil3 str0"
   d="M 9.7021,25.2533 7.0141,12.0519 c 0,0 9.3968,-5.6736 21.5026,-5.5149 12.1059,0.1586 21.4056,5.5751 21.4056,5.5751 l -2.7274,13.1412 z"
   id="path34"
   inkscape:connector-curvature="0"
   style="fill:#003e9e;stroke:#ffcc00;stroke-width:1.39999998" />
  <path
   style="fill:#eec900;stroke-width:3.77952766"
   d="m 74.457031,9.1054688 -3.52539,0.3027343 V 33.150391 l 3.685547,-0.339844 -0.228516,-13.365235 11.355469,9.988282 11.498047,-10.082032 -0.189454,13.296876 3.798826,0.27539 L 101.00195,9.6679688 97.091797,9.2207031 85.740234,22.667969 Z m 40.527349,2.6718752 -7.51758,21.800781 5.90234,0.900391 8.30664,-21.388672 z m -63.693364,0.939453 c -1.127973,-0.03484 -2.235514,0.07774 -3.216797,0.337891 l -10.085938,2.673828 9.021485,21.542968 5.404296,-1.382812 -3.195312,-7.871094 9.927734,6.566406 7.052735,-1.240234 -10.064453,-7.470703 c 0,0 1.938303,-3.186653 2.521484,-4.373047 2.806772,-5.709662 -2.477355,-8.632234 -7.365234,-8.783203 z m -1.070313,2.457031 c 3.353197,0.305386 4.707064,5.201611 2.552735,7.521484 -1.520882,1.638048 -4.652344,2.38086 -4.652344,2.38086 l -3.613282,-8.578125 4.470704,-1.130859 c 0,0 0.903919,-0.223974 1.242187,-0.19336 z m 83.384767,0.783203 c 0,0 -11.28059,20.792121 -12.78711,21.640625 -1.50614,0.848126 -5.31178,1.476967 -3.18164,2.28125 3.5966,1.357607 10.16352,-1.452861 11.97656,-4.392578 L 140.30859,18.144531 Z M 19.960938,23.298828 15.751953,25.40625 20,47.023438 l 5.439453,-2.263672 -1.757812,-5.486328 7.871093,-2.464844 4.498047,4.375 7.0625,-2.47461 z m 135.884762,0 -23.15234,15.410156 7.0625,2.47461 4.49805,-4.375 7.86914,2.464844 -1.75586,5.486328 5.43945,2.263672 4.24805,-21.617188 z m -134.400388,3.673828 7.167969,6.97461 -5.96875,2.089843 -2.658203,-8.296875 z m 132.916018,0 1.45703,0.767578 -2.6582,8.296875 -5.9668,-2.089843 z"
   transform="matrix(0.26458332,0,0,0.26458332,4.9596226,5.8404084)"
   id="path36"
   inkscape:connector-curvature="0" />
  
  <path
   class="fil4 str1"
   d="m 21.9584,21.0149 -0.6273,-0.7625 c -0.063,-8e-4 -0.1512,-0.0039 -0.2652,-0.009 v 0.7715 H 20.6325 V 19.168 c 0.0236,0 0.1139,-0.003 0.2717,-0.0094 0.1573,-0.0065 0.2839,-0.0095 0.3803,-0.0095 0.5972,0 0.8958,0.1815 0.8958,0.5447 0,0.1094 -0.0415,0.2087 -0.1238,0.2987 -0.0821,0.09 -0.1862,0.1532 -0.3112,0.1902 l 0.6948,0.8322 z m -0.8925,-1.5621 v 0.513 c 0.0773,0.0052 0.1364,0.0078 0.177,0.0078 0.1742,0 0.3018,-0.0194 0.3824,-0.0581 0.0811,-0.0387 0.1216,-0.1136 0.1216,-0.2255 0,-0.0908 -0.0432,-0.1545 -0.1304,-0.1902 -0.0866,-0.0362 -0.2229,-0.0543 -0.4092,-0.0543 -0.0449,0 -0.0921,0.0022 -0.1414,0.0073 z m 1.9922,0.0065 v 0.4325 h 0.777 v 0.2784 h -0.777 v 0.5534 h 1.0657 v 0.2913 H 22.6407 V 19.168 h 1.5013 v 0.2913 z m 1.8701,0.8762 v 0.6794 h -0.4175 v -1.8456 c 0.2783,-0.0095 0.441,-0.0138 0.4882,-0.0138 0.3714,0 0.6427,0.0448 0.8147,0.1343 0.1715,0.0895 0.2575,0.2289 0.2575,0.4191 0,0.4235 -0.3178,0.6352 -0.9534,0.6352 -0.047,0 -0.11,-0.0026 -0.1895,-0.0086 z m 0,-0.8827 v 0.5913 c 0.0707,0.006 0.1265,0.0091 0.167,0.0091 0.1908,0 0.3294,-0.025 0.4176,-0.0754 0.0876,-0.0499 0.1315,-0.1312 0.1315,-0.244 0,-0.1914 -0.1967,-0.2874 -0.5889,-0.2874 -0.0439,0 -0.0866,0.0022 -0.1272,0.0064 z m 1.5117,-0.2848 h 0.4174 v 1.2518 c 0,0.0994 0.0384,0.1799 0.1156,0.2423 0.0773,0.0619 0.183,0.0929 0.3178,0.0929 0.1512,0 0.2684,-0.0301 0.3523,-0.0912 0.0843,-0.0611 0.1261,-0.1442 0.1261,-0.25 V 19.168 h 0.4174 v 1.2708 c 0,0.1901 -0.081,0.3386 -0.2432,0.4461 -0.1623,0.1077 -0.3786,0.1615 -0.6493,0.1615 -0.2728,0 -0.4833,-0.0526 -0.6318,-0.1575 -0.1479,-0.105 -0.2223,-0.2557 -0.2223,-0.4514 z m 2.9472,1.8469 h -0.7194 v -1.8456 c 0.3172,-0.0116 0.5391,-0.0177 0.6663,-0.0177 0.2442,0 0.4349,0.0409 0.5724,0.1231 0.1376,0.0818 0.2061,0.1988 0.2061,0.3508 0,0.1462 -0.0986,0.262 -0.2954,0.3468 0.2922,0.08 0.4384,0.2448 0.4384,0.4944 0,0.1679 -0.0811,0.3012 -0.2422,0.4002 -0.1616,0.0985 -0.3703,0.148 -0.6262,0.148 z m -0.302,-1.5835 v 0.4427 c 0.0642,0.0031 0.1316,0.0048 0.2023,0.0048 0.2717,0 0.4075,-0.0801 0.4075,-0.2406 0,-0.142 -0.1232,-0.213 -0.3704,-0.213 -0.0651,0 -0.1451,0.0022 -0.2394,0.0061 z m 0,0.6984 V 20.74 c 0.0844,0.006 0.1529,0.009 0.2055,0.009 0.1864,0 0.3216,-0.025 0.4055,-0.0744 0.0838,-0.0495 0.126,-0.1321 0.126,-0.247 0,-0.1051 -0.0389,-0.1817 -0.1173,-0.2294 -0.0783,-0.0482 -0.2147,-0.0719 -0.4092,-0.0719 -0.0405,0 -0.1107,8e-4 -0.2105,0.0035 z m 1.5391,0.8851 V 19.168 h 0.4175 v 1.5556 h 1.0629 v 0.2913 z m 1.8251,0 V 19.168 h 0.4176 v 1.8469 z m 2.2408,0 -0.6546,-0.7866 -0.262,0.281 v 0.5056 H 33.356 V 19.168 h 0.4175 v 0.8838 l 0.7994,-0.8838 h 0.475 l -0.7363,0.8068 0.8777,1.0401 z m 1.1124,-1.5556 v 0.4325 h 0.7769 v 0.2784 h -0.7769 v 0.5534 h 1.0656 v 0.2913 H 35.3849 V 19.168 h 1.5013 v 0.2913 z M 12.4344,24.013 h -0.7195 v -1.8456 c 0.3173,-0.0117 0.5392,-0.0177 0.6663,-0.0177 0.2443,0 0.4351,0.0409 0.5725,0.1231 0.1376,0.0818 0.206,0.1988 0.206,0.3507 0,0.1463 -0.0985,0.262 -0.2953,0.3468 0.2921,0.0801 0.4383,0.2449 0.4383,0.4944 0,0.1679 -0.081,0.3013 -0.2422,0.4003 -0.1615,0.0985 -0.3703,0.148 -0.6261,0.148 z m -0.3019,-1.5836 v 0.4428 c 0.064,0.003 0.1315,0.0047 0.2021,0.0047 0.2717,0 0.4077,-0.08 0.4077,-0.2405 0,-0.142 -0.1234,-0.213 -0.3704,-0.213 -0.0652,0 -0.1452,0.0021 -0.2394,0.006 z m 0,0.6984 v 0.6102 c 0.0843,0.006 0.1529,0.0091 0.2054,0.0091 0.1863,0 0.3216,-0.025 0.4055,-0.0745 0.0837,-0.0495 0.126,-0.1321 0.126,-0.247 0,-0.105 -0.039,-0.1816 -0.1172,-0.2293 -0.0784,-0.0483 -0.2148,-0.0719 -0.4093,-0.0719 -0.0406,0 -0.1107,8e-4 -0.2104,0.0034 z m 1.4267,-0.0542 c 0,-0.263 0.092,-0.4854 0.2756,-0.6674 0.1836,-0.182 0.429,-0.2728 0.7358,-0.2728 0.3381,0 0.5967,0.0822 0.7753,0.2469 0.1787,0.1649 0.268,0.396 0.268,0.6933 0,0.2978 -0.0932,0.5341 -0.2801,0.7087 -0.1868,0.1748 -0.452,0.2621 -0.7955,0.2621 -0.3156,0 -0.5578,-0.0865 -0.726,-0.2595 -0.1687,-0.1734 -0.2531,-0.41 -0.2531,-0.7113 z m 0.4334,0 c 0,0.2161 0.0465,0.3834 0.1396,0.5017 0.0933,0.1188 0.2285,0.1778 0.4061,0.1778 0.2087,0 0.3682,-0.0577 0.4777,-0.1738 0.1096,-0.1158 0.1644,-0.2845 0.1644,-0.5057 0,-0.4325 -0.2032,-0.6489 -0.6098,-0.6489 -0.1863,0 -0.3293,0.0585 -0.4285,0.1756 -0.0997,0.1174 -0.1495,0.2749 -0.1495,0.4733 z m 1.8781,0.8374 0.1546,-0.2939 c 0.1644,0.0908 0.3266,0.136 0.486,0.136 0.2454,0 0.3676,-0.0671 0.3676,-0.2014 0,-0.0632 -0.029,-0.1231 -0.0865,-0.1803 -0.0576,-0.0573 -0.177,-0.1214 -0.3573,-0.1923 -0.1803,-0.0711 -0.3019,-0.1296 -0.3643,-0.1752 -0.0625,-0.0461 -0.1107,-0.1003 -0.1447,-0.1635 -0.0334,-0.0628 -0.0505,-0.1326 -0.0505,-0.2092 0,-0.1428 0.067,-0.2612 0.2001,-0.3554 0.1332,-0.0943 0.3041,-0.1412 0.5128,-0.1412 0.2718,0 0.4712,0.04 0.5989,0.1197 l -0.1272,0.2823 c -0.1462,-0.0822 -0.3013,-0.1235 -0.4634,-0.1235 -0.0965,0 -0.1709,0.0202 -0.2242,0.0598 -0.0531,0.04 -0.0794,0.0921 -0.0794,0.1558 0,0.1058 0.149,0.216 0.4477,0.3304 0.1572,0.0603 0.2707,0.1163 0.3402,0.167 0.0696,0.0508 0.1228,0.1102 0.159,0.1777 0.0366,0.0676 0.0547,0.1433 0.0547,0.2263 0,0.1498 -0.0751,0.2729 -0.2257,0.3693 -0.1502,0.0968 -0.3518,0.145 -0.6044,0.145 -0.2192,0 -0.417,-0.0443 -0.594,-0.1334 z m 3.3357,0.1274 -1.1413,-1.1687 v 1.1446 H 17.6636 V 22.166 h 0.201 l 1.1107,1.1146 V 22.166 h 0.4011 v 1.8724 z m 1.069,-1.581 v 0.4325 h 0.777 v 0.2784 h -0.777 v 0.5534 h 1.0657 V 24.013 H 19.858 v -1.847 h 1.5013 v 0.2914 z m 2.4515,1.5556 v -1.847 h 0.4174 v 1.847 z m 3.2506,0 v -0.8322 h -0.9358 v 0.8322 h -0.4175 v -1.847 h 0.4175 v 0.7239 h 0.9358 V 22.166 h 0.4126 v 1.847 z m 1.3117,-1.5556 v 0.4325 h 0.777 v 0.2784 h -0.777 v 0.5534 h 1.0657 v 0.2913 h -1.4832 v -1.847 h 1.5013 v 0.2914 z m 2.7785,1.5556 -0.6273,-0.7626 c -0.0631,-8e-4 -0.1513,-0.0038 -0.2653,-0.009 v 0.7716 h -0.4334 v -1.847 c 0.0236,0 0.114,-0.003 0.2717,-0.0094 0.1573,-0.0064 0.284,-0.0095 0.3804,-0.0095 0.5971,0 0.8957,0.1816 0.8957,0.5448 0,0.1093 -0.0416,0.2087 -0.1237,0.2987 -0.0822,0.0899 -0.1863,0.1532 -0.3113,0.1902 l 0.6947,0.8322 z m -0.8926,-1.5621 v 0.513 c 0.0773,0.0051 0.1364,0.0077 0.1769,0.0077 0.1743,0 0.302,-0.0193 0.3826,-0.0581 0.0811,-0.0387 0.1216,-0.1136 0.1216,-0.2255 0,-0.0907 -0.0432,-0.1544 -0.1304,-0.1901 -0.0866,-0.0362 -0.2231,-0.0543 -0.4093,-0.0543 -0.0449,0 -0.0921,0.0021 -0.1414,0.0073 z m 3.1866,-0.1863 -0.1719,0.2707 c -0.0932,-0.0732 -0.2427,-0.1093 -0.4493,-0.1093 -0.1956,0 -0.3561,0.0641 -0.4816,0.1932 -0.125,0.1291 -0.1879,0.2922 -0.1879,0.4897 0,0.1975 0.058,0.3546 0.1742,0.4704 0.1161,0.1161 0.2712,0.1738 0.4646,0.1738 0.222,0 0.3951,-0.062 0.5206,-0.1864 l 0.1939,0.2647 c -0.1699,0.142 -0.4197,0.213 -0.7478,0.213 -0.3289,0 -0.5842,-0.0848 -0.7661,-0.2547 -0.1819,-0.1696 -0.2728,-0.4011 -0.2728,-0.6946 0,-0.2732 0.1007,-0.5013 0.3029,-0.685 0.2017,-0.1838 0.4597,-0.2755 0.7743,-0.2755 0.2695,0 0.4854,0.0431 0.6469,0.13 z m 0.8171,0.1928 v 0.4325 h 0.777 v 0.2784 h -0.777 v 0.5534 h 1.0657 v 0.2913 h -1.4832 v -1.847 h 1.5012 v 0.2914 z m 3.1894,-0.1412 -0.1748,0.2634 c -0.0494,-0.0344 -0.125,-0.0689 -0.228,-0.1028 -0.1025,-0.034 -0.1912,-0.0508 -0.2646,-0.0508 -0.2312,0 -0.4136,0.0615 -0.5474,0.1846 -0.1342,0.123 -0.201,0.2879 -0.201,0.4949 0,0.1966 0.0657,0.3537 0.1967,0.4711 0.1315,0.118 0.3095,0.1765 0.5352,0.1765 0.1491,0 0.2712,-0.0318 0.3677,-0.0955 v -0.3632 h -0.3254 v -0.2798 h 0.743 v 0.8272 c -0.0998,0.0636 -0.228,0.1136 -0.3847,0.1493 -0.1567,0.0356 -0.3129,0.0533 -0.4679,0.0533 -0.337,0 -0.6043,-0.0865 -0.8016,-0.2604 -0.1972,-0.1733 -0.2965,-0.4028 -0.2965,-0.6876 0,-0.2849 0.108,-0.5163 0.3228,-0.6945 0.2153,-0.1781 0.5046,-0.2673 0.8683,-0.2673 0.2581,0 0.4773,0.0603 0.6582,0.1816 z m 0.3577,0.7574 c 0,-0.263 0.092,-0.4854 0.2757,-0.6674 0.1835,-0.182 0.4289,-0.2728 0.7358,-0.2728 0.3381,0 0.5966,0.0822 0.7753,0.2469 0.1786,0.1649 0.2679,0.396 0.2679,0.6933 0,0.2978 -0.0931,0.5341 -0.28,0.7087 -0.1869,0.1748 -0.452,0.2621 -0.7955,0.2621 -0.3156,0 -0.5578,-0.0865 -0.726,-0.2595 -0.1688,-0.1734 -0.2532,-0.41 -0.2532,-0.7113 z m 0.4335,0 c 0,0.2161 0.0464,0.3834 0.1397,0.5017 0.0931,0.1188 0.2284,0.1778 0.406,0.1778 0.2088,0 0.3682,-0.0577 0.4778,-0.1738 0.1095,-0.1158 0.1643,-0.2845 0.1643,-0.5057 0,-0.4325 -0.2032,-0.6489 -0.6098,-0.6489 -0.1864,0 -0.3294,0.0585 -0.4284,0.1756 -0.0998,0.1174 -0.1496,0.2749 -0.1496,0.4733 z m 2.8671,0.9648 H 39.797 L 38.9176,22.166 h 0.4591 l 0.5442,1.248 0.5746,-1.248 h 0.4493 z m 1.1748,-0.0254 v -1.847 h 0.4175 v 1.847 z m 2.4496,0.0254 -1.1413,-1.1687 v 1.1446 H 42.108 V 22.166 h 0.201 l 1.1108,1.1146 V 22.166 h 0.401 v 1.8724 z m 1.069,-1.581 v 0.4325 h 0.777 v 0.2784 h -0.777 v 0.5534 h 1.0657 v 0.2913 h -1.4832 v -1.847 h 1.5013 v 0.2914 z"
   id="path40"
   inkscape:connector-curvature="0"
   style="fill:#eec900;fill-rule:nonzero;stroke:#eec900;stroke-width:0.2" />
  
  
  
  
  
  
  
  
  
  
  
  
  
  
  
 <g
   transform="matrix(-0.99913821,0,0,0.99913821,56.894954,-0.08774506)"
   style="fill-rule:evenodd"
   id="_37240080-6"><path
     id="_110212208-3"
     class="fil0"
     d="M 5.8,71.6696 16.4632,61.0058 c 0.4924,-0.4918 1.4245,-0.4865 1.4248,-0.4861 3e-4,2e-4 0.0655,0.9922 -0.4333,1.4775 C 17.0033,62.4363 6.8275,72.6379 6.8275,72.6379 Z"
     inkscape:connector-curvature="0"
     style="fill:#eec900" /><path
     id="_35395864-3"
     class="fil0"
     d="m 16.2358,62.0132 4.9592,4.9598 c 0.2212,0.2487 0.1645,0.4632 -0.0461,0.6734 -0.2106,0.2103 -0.4599,0.3025 -0.7092,0.082 -0.2494,-0.2204 -5.1896,-4.6462 -5.1896,-4.6462 -9e-4,-9e-4 0.9832,-1.0721 0.9857,-1.069 z"
     inkscape:connector-curvature="0"
     style="fill:#eec900" /><path
     id="_36566568-9"
     class="fil0"
     d="m 7.211,68.93 c 1.2432,0 2.2514,1.015 2.2514,2.2666 0,1.2515 -1.0082,2.2666 -2.2514,2.2666 -1.2431,0 -2.2513,-1.0151 -2.2513,-2.2666 0,-1.2516 1.0082,-2.2666 2.2513,-2.2666 z"
     inkscape:connector-curvature="0"
     style="fill:#eec900" /><path
     id="_37238512-3"
     class="fil0"
     d="m 15.2735,63.1043 -5.0017,-4.9171 c -0.2233,-0.2467 -0.1685,-0.4616 0.0403,-0.6737 0.2088,-0.2121 0.4573,-0.3064 0.7086,-0.0881 0.2512,0.2182 5.2293,4.6014 5.2293,4.6014 9e-4,10e-4 -0.974,1.0806 -0.9765,1.0775 z"
     inkscape:connector-curvature="0"
     style="fill:#eec900" /></g><g
   id="Layer_x0020_1-6"
   transform="matrix(0.0972166,0,0,0.09691516,12.01402,25.418951)">
  
  
  
  
  
  
  
  
  
  
  
  
  
  
  
  
  
  
  
  
  
  
  <g
   id="g2054"
   transform="matrix(1.194394,0,0,1.194394,-3.8785698,-16.49946)"><path
     sodipodi:nodetypes="ccccsc"
     inkscape:connector-curvature="0"
     id="path2029"
     style="fill:#003e9e;fill-opacity:1;stroke:#eeca00;stroke-width:8.72491169;stroke-linecap:butt;stroke-linejoin:miter;stroke-miterlimit:4;stroke-dasharray:none;stroke-opacity:1;paint-order:fill markers stroke"
     d="M 17.772934,31.646234 H 271.15417 l -8.8e-4,149.191306 c 0,110.97111 -118.7215,189.06404 -126.85379,193.77382 C 136.16721,369.90158 17.772934,292.52072 17.772934,180.83754 Z" /><path
     sodipodi:nodetypes="cccccc"
     inkscape:connector-curvature="0"
     id="path2031"
     style="fill:#ffffff;stroke-width:8.72627068"
     d="m 28.350047,41.960568 -0.0288,21.254578 191.641993,221.434364 c 16.11743,-24.70843 0,0 16.11743,-24.70843 L 47.382043,41.918682 Z" /><path
     inkscape:connector-curvature="0"
     id="path2033"
     style="fill:#eec900;stroke-width:8.72627068"
     d="m 226.03149,54.459323 c -3.86224,2.174587 -8.20618,5.980114 -8.20618,13.59204 0.48256,6.52376 6.27506,22.834905 5.7925,30.446831 h -0.48257 c -0.48256,-1.087293 -0.48256,-7.068279 -3.86224,-13.049265 -3.37882,-6.52376 -6.27506,-5.980114 -8.68875,-5.980114 -4.34481,0 -8.20706,4.349174 -8.20706,9.242866 0,4.349174 4.34481,9.786513 8.20706,9.786513 -1.44856,-1.087293 -1.93112,-3.806399 -1.44856,-5.437339 0,-1.087294 2.41368,-2.718234 3.86225,-2.718234 1.93025,0.543647 3.37881,1.63094 4.82737,3.26188 1.44769,1.63094 2.41368,3.26188 3.37881,4.893693 h -1.44856 -4.34394 c -1.44856,0 -2.41368,1.087293 -2.41368,2.174586 0,1.63094 0.96512,2.17459 2.41368,2.17459 h 5.7925 c 3.86225,0.54364 0.48256,7.06828 -0.48256,8.15557 0.96512,1.08729 1.44769,1.63094 2.41368,2.71823 0.48257,1.0873 0.96513,2.17459 0.96513,3.80553 0,0 0,0 0,0 0,0 0,0 0,0 0.48256,1.08729 0.966,1.63181 1.93112,1.63181 0.96513,0 0.96513,-0.54452 1.44856,-1.63181 0,0 0,0 0,0 0,0 0,0 0,0 0.48257,-1.63094 0.48257,-2.71823 1.44769,-3.80553 0.48257,-1.08729 1.44856,-1.63094 1.93113,-2.71823 -0.48257,-1.08729 -4.34481,-7.61193 0,-8.15557 h 4.82737 c 1.44856,0 2.41369,-0.54365 2.41369,-2.17459 0,-1.087293 -0.96513,-2.174586 -2.41369,-2.174586 h -3.37881 -1.44856 c 0.48256,-1.631813 1.93112,-3.262753 2.41368,-4.893693 1.44856,-1.63094 2.89625,-2.718233 4.82738,-3.26188 1.93112,0 3.86224,1.63094 4.34481,2.718234 0.48256,1.087293 0,4.350046 -1.44856,5.437339 3.86224,0 8.20705,-5.437339 8.20705,-9.786513 0,-4.893692 -3.86224,-9.242866 -8.20705,-9.242866 -2.41369,0 -5.30994,-0.543646 -8.68875,5.980114 -3.37969,5.980986 -3.37969,11.961972 -3.37969,13.049265 h -0.96512 c 0,-7.611926 5.30993,-23.923071 5.7925,-30.446831 -0.48257,-7.611926 -4.34481,-11.417453 -7.72363,-13.59204 z" /><path
     inkscape:connector-curvature="0"
     id="path2035"
     style="fill:#eec900;stroke-width:8.72627068"
     d="m 150.19671,54.459323 c -3.86225,2.174587 -8.20706,5.980114 -8.20706,13.59204 0.48344,6.52376 6.27594,22.834905 5.79337,30.446831 h -0.48256 c -0.48343,-1.087293 -0.48343,-7.068279 -3.86225,-13.049265 -3.37881,-6.52376 -6.27593,-5.980114 -8.68962,-5.980114 -4.34393,0 -8.20618,4.349174 -8.20618,9.242866 0,4.349174 4.34481,9.786513 8.20618,9.786513 -1.44769,-1.087293 -1.93025,-3.806399 -1.44769,-5.437339 0,-1.087294 2.41369,-2.718234 3.86138,-2.718234 1.93112,0.543647 3.37968,1.63094 4.82737,3.26188 1.44856,1.63094 2.41369,3.26188 3.37969,4.893693 h -1.44856 -4.34481 c -1.44769,0 -2.41369,1.087293 -2.41369,2.174586 0,1.63094 0.966,2.17459 2.41369,2.17459 h 5.79337 c 3.86137,0.54364 0.48256,7.06828 -0.48257,8.15557 0.96513,1.08729 1.44769,1.63094 2.41369,2.71823 0.48256,1.0873 0.96513,2.17459 0.96513,3.80553 0,0 0,0 0,0 0,0 0,0 0,0 0.48256,1.08729 0.96512,1.63181 1.93112,1.63181 0.96513,0 0.96513,-0.54452 1.44769,-1.63181 0,0 0,0 0,0 0,0 0,0 0,0 0.48343,-1.63094 0.48343,-2.71823 1.44856,-3.80553 0.48256,-1.08729 1.44856,-1.63094 1.93112,-2.71823 -0.48256,-1.08729 -4.34481,-7.61193 0,-8.15557 h 4.82738 c 1.44856,0 2.41368,-0.54365 2.41368,-2.17459 0,-1.087293 -0.96512,-2.174586 -2.41368,-2.174586 h -3.37969 -1.44769 c 0.48257,-1.631813 1.93113,-3.262753 2.41369,-4.893693 1.44856,-1.63094 2.89625,-2.718233 4.82737,-3.26188 1.93113,0 3.86225,1.63094 4.34481,2.718234 0.48257,1.087293 0,4.350046 -1.44856,5.437339 3.86225,0 8.20706,-5.437339 8.20706,-9.786513 0,-4.893692 -3.86225,-9.242866 -8.20706,-9.242866 -2.41368,0 -5.30993,-0.543646 -8.68962,5.980114 -3.37881,5.980986 -3.37881,11.961972 -3.37881,13.049265 h -0.96513 c 0,-7.611926 5.30994,-23.923071 5.7925,-30.446831 -0.48256,-7.611926 -4.34481,-11.417453 -7.72362,-13.59204 z" /><path
     inkscape:connector-curvature="0"
     id="path2037"
     style="fill:#eec900;stroke-width:8.72627068"
     d="m 226.03149,142.63916 c -3.86224,2.17459 -8.20618,5.98012 -8.20618,13.59204 0.48256,6.52463 6.27506,22.83491 5.7925,30.44683 h -0.48257 c -0.48256,-1.08729 -0.48256,-7.06828 -3.86224,-13.04839 -3.37882,-6.52463 -6.27506,-5.98099 -8.68875,-5.98099 -4.34481,0 -8.20706,4.34918 -8.20706,9.24287 0,4.34917 4.34481,9.78651 8.20706,9.78651 -1.44856,-1.08729 -1.93112,-3.8064 -1.44856,-5.43734 0,-1.08729 2.41368,-2.71823 3.86225,-2.71823 1.93025,0.54365 3.37881,1.63094 4.82737,3.26188 1.44769,1.63094 2.41368,3.26275 3.37881,4.89369 h -1.44856 -4.34394 c -1.44856,0 -2.41368,1.0873 -2.41368,2.17459 0,1.63094 0.96512,2.17459 2.41368,2.17459 h 5.7925 c 3.86225,0.54364 0.48256,7.06828 -0.48256,8.15557 0.96512,1.08729 1.44769,1.63094 2.41368,2.71823 0.48257,1.0873 0.96513,2.17459 0.96513,3.8064 0,0 0,0 0,0 0,0 0,0 0,0 0.48256,1.08729 0.966,1.63094 1.93112,1.63094 0.96513,0 0.96513,-0.54365 1.44856,-1.63094 0,0 0,0 0,0 0,0 0,0 0,0 0.48257,-1.63181 0.48257,-2.7191 1.44769,-3.8064 0.48257,-1.08729 1.44856,-1.63094 1.93113,-2.71823 -0.48257,-1.08729 -4.34481,-7.61193 0,-8.15557 h 4.82737 c 1.44856,0 2.41369,-0.54365 2.41369,-2.17459 0,-1.08729 -0.96513,-2.17459 -2.41369,-2.17459 h -3.37881 -1.44856 c 0.48256,-1.63094 1.93112,-3.26275 2.41368,-4.89369 1.44856,-1.63094 2.89625,-2.71823 4.82738,-3.26188 1.93112,0 3.86224,1.63094 4.34481,2.71823 0.48256,1.0873 0,4.35005 -1.44856,5.43734 3.86224,0 8.20705,-5.43734 8.20705,-9.78651 0,-4.89369 -3.86224,-9.24287 -8.20705,-9.24287 -2.41369,0 -5.30994,-0.54364 -8.68875,5.98099 -3.37969,5.98011 -3.37969,11.9611 -3.37969,13.04839 h -0.96512 c 0,-7.61192 5.30993,-23.9222 5.7925,-30.44683 -0.48257,-7.61192 -4.34481,-11.41745 -7.72363,-13.59204 z" /><path
     inkscape:connector-curvature="0"
     id="path2039"
     style="fill:#eec900;stroke-width:8.72627068"
     d="m 60.253292,142.63916 c -3.862247,2.17459 -8.207057,5.98012 -8.207057,13.59204 0.482563,6.52463 6.275934,22.83491 5.793371,30.44683 h -0.483435 c -0.482563,-1.08729 -0.482563,-7.06828 -3.861375,-13.04839 -3.379685,-6.52463 -6.275934,-5.98099 -8.689621,-5.98099 -4.34481,0 -8.206185,4.34918 -8.206185,9.24287 0,4.34917 4.344811,9.78651 8.206185,9.78651 -1.447688,-1.08729 -1.931123,-3.8064 -1.447688,-5.43734 0,-1.08729 2.413687,-2.71823 3.861375,-2.71823 1.931124,0.54365 3.379685,1.63094 4.827373,3.26188 1.448561,1.63094 2.413686,3.26275 3.379685,4.89369 h -1.448561 -4.344811 c -1.447688,0 -2.413686,1.0873 -2.413686,2.17459 0,1.63094 0.965998,2.17459 2.413686,2.17459 h 5.793372 c 3.861374,0.54364 0.482562,7.06828 -0.483436,8.15557 0.965998,1.08729 1.448561,1.63094 2.413687,2.71823 0.483435,1.0873 0.965998,2.17459 0.965998,3.8064 0,0 0,0 0,0 0,0 0,0 0,0 0.482563,1.08729 0.965125,1.63094 1.931123,1.63094 0.965126,0 0.965126,-0.54365 1.447689,-1.63094 0,0 0,0 0,0 0,0 0,0 0,0 0.482563,-1.63181 0.482563,-2.7191 1.448561,-3.8064 0.482563,-1.08729 1.447688,-1.63094 1.931123,-2.71823 -0.483435,-1.08729 -4.34481,-7.61193 0,-8.15557 h 4.827373 c 1.447689,0 2.413687,-0.54365 2.413687,-2.17459 0,-1.08729 -0.965998,-2.17459 -2.413687,-2.17459 h -3.379684 -1.447689 c 0.482563,-1.63094 1.931124,-3.26275 2.413687,-4.89369 1.447688,-1.63094 2.896249,-2.71823 4.827373,-3.26188 1.931124,0 3.861375,1.63094 4.34481,2.71823 0.482563,1.0873 0,4.35005 -1.448561,5.43734 3.862248,0 8.206185,-5.43734 8.206185,-9.78651 0,-4.89369 -3.861375,-9.24287 -8.206185,-9.24287 -2.413686,0 -5.309936,-0.54364 -8.68962,5.98099 -3.378812,5.98011 -3.378812,11.9611 -3.378812,13.04839 h -0.965998 c 0,-7.61192 5.310808,-23.9222 5.793371,-30.44683 -0.482563,-7.61192 -4.34481,-11.41745 -7.723623,-13.59204 z" /><path
     inkscape:connector-curvature="0"
     id="path2041"
     style="fill:#eec900;stroke-width:8.72627068"
     d="m 104.34278,206.12889 c -3.86138,2.17459 -8.20619,5.98011 -8.20619,13.59204 0.482563,6.52376 6.27506,22.8349 5.7925,30.44683 h -0.48256 c -0.48257,-1.08729 -0.48257,-7.06828 -3.862251,-13.04926 -3.378812,-6.52376 -6.275062,-5.98012 -8.688748,-5.98012 -4.34481,0 -8.207058,4.34918 -8.207058,9.24287 0,4.34917 4.34481,9.78651 8.207058,9.78651 -1.448561,-1.08729 -1.931124,-3.8064 -1.448561,-5.43734 0,-1.08729 2.413686,-2.71823 3.862247,-2.71823 1.931124,0.54364 3.378812,1.63094 4.827373,3.26188 1.447689,1.63094 2.413687,3.26188 3.378812,4.89369 h -1.447688 -4.34481 c -1.448561,0 -2.413687,1.08729 -2.413687,2.17459 0,1.63094 0.965126,2.17458 2.413687,2.17458 h 5.792498 c 3.862248,0.54365 0.482563,7.06828 -0.482562,8.15558 0.965125,1.08729 1.44856,1.63094 2.41369,2.71823 0.48256,1.08729 0.96512,2.17459 0.96512,3.80553 0,0 0,0 0,0 0,0 0,0 0,0 0.48344,1.08816 0.966,1.63181 1.93113,1.63181 0.96599,0 0.96599,-0.54365 1.44856,-1.63181 0,0 0,0 0,0 0,0 0,0 0,0 0.48256,-1.63094 0.48256,-2.71824 1.44768,-3.80553 0.48344,-1.08729 1.44857,-1.63094 1.93113,-2.71823 -0.48256,-1.0873 -4.34481,-7.61193 0,-8.15558 h 4.82737 c 1.44856,0 2.41369,-0.54364 2.41369,-2.17458 0,-1.0873 -0.96513,-2.17459 -2.41369,-2.17459 h -3.37881 -1.44856 c 0.48256,-1.63181 1.93112,-3.26275 2.41368,-4.89369 1.44857,-1.63094 2.89625,-2.71824 4.82738,-3.26188 1.93112,0 3.86225,1.63094 4.34481,2.71823 0.48256,1.08729 0,4.35005 -1.44856,5.43734 3.86224,0 8.20705,-5.43734 8.20705,-9.78651 0,-4.89369 -3.86224,-9.24287 -8.20705,-9.24287 -2.41369,0 -5.30994,-0.54364 -8.68875,5.98012 -3.37969,5.98098 -3.37969,11.96197 -3.37969,13.04926 h -0.96512 c 0,-7.61193 5.30993,-23.92307 5.7925,-30.44683 -0.48257,-7.61193 -4.34394,-11.41745 -7.72362,-13.59204 z" /><path
     inkscape:connector-curvature="0"
     id="path2043"
     style="fill:#eeca00;fill-opacity:1;stroke-width:8.72627068"
     d="m 144.90597,269.61775 c -3.86225,2.17545 -8.20706,5.98098 -8.20706,13.59291 0.48344,6.52376 6.27594,22.8349 5.79338,30.44596 h -0.48257 c -0.48343,-1.0873 -0.48343,-7.06741 -3.86224,-13.0484 -3.37882,-6.52376 -6.27594,-5.98011 -8.68962,-5.98011 -4.34394,0 -8.20619,4.34917 -8.20619,9.24287 0,4.34917 4.34481,9.78564 8.20619,9.78564 -1.44769,-1.0873 -1.93026,-3.80553 -1.44769,-5.43647 0,-1.08729 2.41368,-2.71823 3.86137,-2.71823 1.93113,0.54364 3.37969,1.63094 4.82737,3.26188 1.44857,1.63094 2.41369,3.26188 3.37969,4.89282 h -1.44856 -4.34481 c -1.44769,0 -2.41369,1.08816 -2.41369,2.17545 0,1.63094 0.966,2.17459 2.41369,2.17459 h 5.79337 c 3.86137,0.54365 0.48256,7.06828 -0.48256,8.15557 0.96512,1.0873 1.44768,1.63094 2.41368,2.71824 0.48257,1.08729 0.96513,2.17458 0.96513,3.80552 0,0 0,0 0,0 0,0 0,0 0,0 0.48256,1.0873 0.96512,1.63094 1.93112,1.63094 0.96513,0 0.96513,-0.54364 1.44769,-1.63094 0,0 0,0 0,0 0,0 0,0 0,0 0.48344,-1.63094 0.48344,-2.71823 1.44856,-3.80552 0.48256,-1.0873 1.44856,-1.63094 1.93113,-2.71824 -0.48257,-1.08729 -4.34482,-7.61192 0,-8.15557 h 4.82737 c 1.44769,0 2.41368,-0.54365 2.41368,-2.17459 0,-1.08729 -0.96599,-2.17545 -2.41368,-2.17545 h -3.37969 -1.44768 c 0.48256,-1.63094 1.93112,-3.26188 2.41368,-4.89282 1.44769,-1.63094 2.89625,-2.71824 4.82737,-3.26188 1.93113,0 3.86138,1.63094 4.34481,2.71823 0.48257,1.08729 0,4.34917 -1.44856,5.43647 3.86225,0 8.20619,-5.43647 8.20619,-9.78564 0,-4.8937 -3.86138,-9.24287 -8.20619,-9.24287 -2.41368,0 -5.30993,-0.54365 -8.68962,5.98011 -3.37881,5.98099 -3.37881,11.9611 -3.37881,13.0484 h -0.96512 c 0,-7.61106 5.30993,-23.9222 5.79249,-30.44596 -0.48256,-7.61193 -4.34481,-11.41746 -7.72362,-13.59291 z" /></g>
  
  
  
 </g></g>
<path
   style="fill:none;stroke-width:0.28085881"
   d="M 22.870116,60.335246 C 20.855153,59.131188 17.734607,56.348182 15.816522,54.044623 13.176237,50.873724 11.14634,47.152357 10.34142,44.007229 9.7082302,41.533119 9.7248957,41.831197 9.6673084,31.949927 L 9.6132651,22.676712 H 23.523068 37.432871 l -0.04331,9.511753 c -0.04186,9.195934 -0.05171,9.547394 -0.296367,10.585179 -1.206005,5.115633 -3.819941,9.500866 -8.21569,13.782944 -2.140396,2.085042 -4.751742,4.060831 -5.336892,4.037983 -0.13918,-0.0054 -0.440902,-0.122131 -0.670496,-0.259325 z m 1.094308,-4.174034 c 0.117652,-0.298245 0.173379,-0.665805 0.13555,-0.894075 -0.05836,-0.352165 -0.03661,-0.387627 0.237721,-0.387627 0.456311,0 0.679275,-0.120516 0.679275,-0.367158 0,-0.148181 -0.122399,-0.254085 -0.366877,-0.317438 l -0.366877,-0.09507 0.261371,-0.332279 c 0.367648,-0.467388 0.770976,-0.400309 0.769404,0.127965 -0.0014,0.48445 0.294622,0.523226 0.640234,0.08385 0.352574,-0.448226 0.422206,-0.928191 0.197659,-1.362418 -0.37022,-0.715927 -1.316858,-0.760081 -1.75064,-0.08166 l -0.24057,0.376247 0.0662,-0.357812 c 0.03641,-0.196794 0.13071,-0.691637 0.209563,-1.09965 0.175939,-0.91038 0.03317,-1.497362 -0.484922,-1.993726 L 23.59635,49.12009 23.183007,49.533433 c -0.539473,0.539473 -0.629798,1.047389 -0.382771,2.152429 0.106705,0.477334 0.224226,1.002056 0.261157,1.166052 0.0495,0.219745 -0.0064,0.173748 -0.212687,-0.174881 -0.478624,-0.809108 -1.42569,-0.840216 -1.829115,-0.06008 -0.224548,0.434227 -0.154915,0.914192 0.19766,1.362417 0.344633,0.438129 0.641676,0.400608 0.640232,-0.08086 -0.0015,-0.510927 0.308742,-0.568638 0.73978,-0.137599 l 0.329063,0.329063 -0.38004,0.09847 c -0.209022,0.05416 -0.417715,0.159441 -0.463767,0.233953 -0.123657,0.200084 0.298477,0.457095 0.750763,0.457095 0.417091,0 0.47442,0.105165 0.267799,0.491243 -0.0985,0.184049 -0.06948,0.355552 0.12991,0.767409 0.141217,0.291717 0.31906,0.530191 0.395207,0.529946 0.07614,-2.37e-4 0.228349,-0.228349 0.338231,-0.506896 z m 8.887486,-5.585049 c 0.274921,-0.355486 0.668784,-0.975318 0.875252,-1.377401 L 34.102557,48.4677 23.326538,36.019467 12.550518,23.571234 l -1.165439,-0.03419 -1.165437,-0.03418 0.03376,1.305149 0.03376,1.30515 10.903151,12.597468 c 5.996733,6.928606 10.961334,12.578208 11.032441,12.554669 0.07111,-0.02354 0.354222,-0.333651 0.629145,-0.68914 z M 19.335076,48.921158 c 0.140796,-0.319121 0.183032,-0.606231 0.130433,-0.886621 -0.07704,-0.410686 -0.07339,-0.41503 0.381259,-0.452388 0.371262,-0.03051 0.466341,-0.08903 0.497165,-0.306077 0.03248,-0.228702 -0.01645,-0.268356 -0.331054,-0.268356 -0.368337,0 -0.368768,-8.42e-4 -0.191612,-0.343358 0.21249,-0.410907 0.479093,-0.534759 0.791368,-0.367635 0.26056,0.139446 0.283505,0.2687 0.106431,0.599564 -0.200761,0.375126 0.09708,0.280946 0.552838,-0.174819 0.448294,-0.448293 0.512531,-0.83062 0.231023,-1.374997 -0.199615,-0.386013 -0.396438,-0.485608 -0.959679,-0.485608 -0.308024,0 -0.468726,0.08841 -0.704539,0.387625 -0.351886,0.446486 -0.361301,0.404436 -0.126852,-0.56653 0.306162,-1.267962 0.194819,-1.948412 -0.408102,-2.494051 -0.368186,-0.333203 -0.79429,-0.09959 -1.106759,0.6068 -0.257183,0.581407 -0.242286,0.781711 0.206892,2.781774 0.0604,0.26892 0.0475,0.263072 -0.13158,-0.05963 -0.280311,-0.505166 -0.512489,-0.655983 -1.009868,-0.655983 -0.56477,0 -0.970549,0.412427 -0.987302,1.003478 -0.01354,0.477483 0.313864,1.005095 0.715998,1.153854 0.23576,0.08721 0.250981,0.06363 0.192292,-0.298044 -0.109574,-0.675221 0.522444,-0.685382 0.961397,-0.01545 l 0.198545,0.303018 h -0.428488 c -0.376138,0 -0.423832,0.03278 -0.390376,0.268356 0.03168,0.223084 0.123627,0.274542 0.545009,0.305033 0.529879,0.03834 0.622156,0.181083 0.393386,0.608545 -0.131901,0.246455 0.281978,1.203456 0.520463,1.203456 0.07891,0 0.237189,-0.212376 0.351712,-0.471949 z m -5.056788,-7.18033 c 0.173436,-0.358968 0.219444,-0.622718 0.166444,-0.954156 l -0.07325,-0.458055 H 14.8721 c 0.45094,0 0.496835,-0.02663 0.462505,-0.268356 -0.02729,-0.192134 -0.13126,-0.279075 -0.366062,-0.306094 -0.297051,-0.03419 -0.314881,-0.06228 -0.18924,-0.298173 0.216726,-0.406923 0.47876,-0.555657 0.736196,-0.417881 0.161133,0.08624 0.20836,0.214668 0.17144,0.466225 -0.05923,0.40358 -0.0651,0.400954 0.380795,0.170369 0.387914,-0.200599 0.663592,-0.860579 0.535648,-1.282347 -0.265398,-0.874888 -1.227647,-1.100772 -1.786254,-0.419317 -0.299774,0.365697 -0.314144,0.370758 -0.254039,0.08946 0.338183,-1.582758 0.356225,-1.887739 0.14448,-2.442186 -0.410477,-1.074818 -1.021689,-1.10352 -1.522288,-0.0715 -0.265899,0.548177 -0.257645,0.741045 0.105041,2.454039 l 0.07575,0.35781 -0.327545,-0.387624 c -0.668731,-0.791402 -1.791787,-0.34969 -1.791787,0.704728 0,0.393656 0.07127,0.546233 0.386797,0.828165 0.483775,0.432253 0.593304,0.434486 0.531124,0.01084 -0.02956,-0.201445 0.02084,-0.392858 0.126582,-0.480609 0.142854,-0.118559 0.24513,-0.08742 0.54687,0.166474 0.441335,0.371357 0.470273,0.529638 0.09684,0.529638 -0.333316,0 -0.564565,0.208611 -0.478852,0.431977 0.03876,0.10101 0.243501,0.164371 0.531137,0.164371 0.525288,0 0.676106,0.193623 0.46218,0.59335 -0.110119,0.205757 -0.08711,0.355226 0.120724,0.78457 0.141218,0.291718 0.304389,0.530394 0.362604,0.530394 0.05822,0 0.213708,-0.223245 0.345537,-0.496103 v 0 z m 18.936759,-0.05201 c 0.207686,-0.42634 0.238619,-0.59974 0.139905,-0.784195 -0.19678,-0.367684 -0.04576,-0.575994 0.417554,-0.575994 0.227779,0 0.444325,-0.04882 0.481208,-0.108507 0.128438,-0.207817 -0.08045,-0.487842 -0.363918,-0.487842 -0.365675,0 -0.361893,-0.172901 0.01196,-0.546758 0.250207,-0.250208 0.337351,-0.27598 0.549423,-0.162485 0.198465,0.106218 0.2373,0.208616 0.182684,0.481703 -0.08905,0.445302 0.08367,0.444709 0.530197,-0.002 0.721998,-0.721999 0.307124,-1.917488 -0.665431,-1.917488 -0.310237,0 -0.509314,0.08713 -0.72104,0.315588 -0.341911,0.368929 -0.348692,0.325034 -0.118662,-0.768479 0.206369,-0.981052 0.102808,-1.514091 -0.404474,-2.081835 -0.329114,-0.36834 -0.340851,-0.371456 -0.646141,-0.171425 -0.687267,0.450317 -0.835077,1.222719 -0.504091,2.634225 0.106089,0.452432 0.164999,0.850494 0.130906,0.884585 -0.03409,0.03409 -0.06198,0.0071 -0.06198,-0.05975 0,-0.06695 -0.131615,-0.263749 -0.292477,-0.437323 -0.648997,-0.700279 -1.735107,-0.209256 -1.735107,0.784428 0,0.359163 0.08156,0.550393 0.348636,0.817471 0.446531,0.446534 0.619257,0.447126 0.530197,0.002 -0.05489,-0.274454 -0.01584,-0.375449 0.187127,-0.484079 0.223418,-0.119571 0.30414,-0.08639 0.626012,0.257359 l 0.369523,0.394626 -0.404582,0.05963 c -0.306207,0.04514 -0.413848,0.124887 -0.442692,0.327993 -0.03475,0.244705 0.01,0.268359 0.506893,0.268359 0.471278,0 0.545009,0.03333 0.545009,0.246377 0,0.135511 -0.05254,0.34456 -0.116764,0.464557 -0.08482,0.158492 -0.06851,0.258219 0.05964,0.364572 0.09702,0.08052 0.176398,0.236432 0.176398,0.346476 0,0.19138 0.213852,0.486742 0.351847,0.485956 0.03608,-2.39e-4 0.185587,-0.246694 0.332244,-0.547749 z M 24.566602,31.645925 c 0.137031,-0.297856 0.181991,-0.592519 0.134789,-0.883391 -0.07057,-0.434876 -0.06915,-0.436591 0.390732,-0.474325 0.373814,-0.03066 0.468807,-0.08888 0.499673,-0.306227 0.03242,-0.228288 -0.01655,-0.268357 -0.327991,-0.268357 -0.402901,0 -0.422629,-0.02933 -0.244101,-0.362913 0.162265,-0.303199 0.528896,-0.489322 0.776621,-0.39426 0.15152,0.05815 0.184768,0.172476 0.136552,0.46959 -0.0536,0.330307 -0.03192,0.38155 0.136347,0.322387 0.678048,-0.238401 1.014332,-1.052549 0.692123,-1.675636 -0.209912,-0.405923 -0.401449,-0.50602 -0.968277,-0.50602 -0.296989,0 -0.474924,0.0925 -0.705864,0.36696 -0.364511,0.4332 -0.364388,0.434 -0.113315,-0.734374 0.229628,-1.0686 0.15937,-1.622934 -0.270442,-2.133738 -0.377833,-0.449026 -0.56721,-0.453093 -0.998848,-0.02146 -0.570567,0.570565 -0.575752,0.943004 -0.04507,3.238225 0.05754,0.248867 0.02507,0.229142 -0.196341,-0.11927 -0.336307,-0.529208 -0.437971,-0.592285 -0.958208,-0.594522 -1.223692,-0.0052 -1.389906,1.759245 -0.205435,2.180853 0.173469,0.06175 0.193562,0.01727 0.131763,-0.29173 -0.06665,-0.333286 0.0703,-0.570599 0.333092,-0.577156 0.110683,-0.0028 0.702064,0.612198 0.702064,0.730056 0,0.05666 -0.155273,0.103004 -0.345048,0.103004 -0.373062,0 -0.553108,0.246833 -0.337397,0.462547 0.0736,0.0736 0.337756,0.133804 0.587029,0.133804 0.486318,0 0.518362,0.05169 0.333489,0.537937 -0.09075,0.238702 -0.07632,0.376913 0.05963,0.571017 0.09866,0.140848 0.179372,0.351486 0.179372,0.468087 0,0.385022 0.40757,0.227312 0.623058,-0.241092 z m 8.661748,-0.04259 c 0.175804,-0.355331 0.213105,-0.555733 0.131735,-0.707775 -0.233153,-0.435646 -0.140062,-0.585585 0.363569,-0.585585 0.262392,0 0.485127,-0.05367 0.494969,-0.11927 0.05425,-0.361761 0.007,-0.422459 -0.371422,-0.477081 l -0.413163,-0.05963 0.376547,-0.417444 c 0.316596,-0.350981 0.410863,-0.39584 0.592071,-0.281753 0.137295,0.08645 0.209719,0.265059 0.199541,0.492113 -0.01323,0.295088 0.02306,0.346208 0.210913,0.297084 0.341548,-0.08931 0.699587,-0.670673 0.699587,-1.135935 0,-0.647822 -0.382583,-1.041283 -1.0125,-1.041283 -0.426374,0 -0.561436,0.05808 -0.762816,0.327991 -0.296347,0.3972 -0.311206,0.251791 -0.08485,-0.830126 0.184962,-0.884021 0.115894,-1.435424 -0.241336,-1.92667 -0.351857,-0.483858 -0.619796,-0.510626 -1.02775,-0.102673 -0.494483,0.494483 -0.579358,1.083106 -0.314614,2.181859 0.28271,1.173314 0.275322,1.296787 -0.04873,0.814518 -0.23463,-0.349182 -0.348316,-0.41022 -0.821522,-0.441071 -0.475892,-0.03102 -0.582829,0.0069 -0.80111,0.284441 -0.472938,0.601246 -0.261382,1.472357 0.445678,1.835128 0.268596,0.13781 0.276977,0.129336 0.203418,-0.205578 -0.109715,-0.499534 0.179053,-0.727092 0.585074,-0.461056 0.162016,0.106156 0.3502,0.296948 0.418186,0.423983 0.109246,0.204127 0.07854,0.235319 -0.264158,0.268356 -0.2958,0.02852 -0.387773,0.09396 -0.387773,0.275927 0,0.195369 0.09173,0.245175 0.506894,0.275214 0.434752,0.03146 0.506896,0.07475 0.506896,0.304135 0,0.147106 -0.06314,0.330603 -0.140305,0.407768 -0.107561,0.107561 -0.09365,0.191866 0.05964,0.361237 0.109966,0.121512 0.199939,0.301685 0.199939,0.400385 0,0.0987 0.03578,0.215233 0.07952,0.258965 0.1852,0.185202 0.38789,0.04868 0.617879,-0.41617 z"
   id="path3795"
   inkscape:connector-curvature="0" /></svg>