<svg width="270" height="430" xmlns="http://www.w3.org/2000/svg" xmlns:xlink="http://www.w3.org/1999/xlink">

<pattern id="chess" x="-1.5" y="2" width="42" height="44" patternUnits="userSpaceOnUse">
<path d="m0 0v44h42V0" fill="#d11"/>
<path d="m0 0h42v22h-42v22h21v-44h21" fill="#fff"/>
</pattern>

<path d="m4 426h262v-291a131 131 0 0 0-262 0z" fill="#453" stroke="#fc0" stroke-width="5"/>

<use transform="matrix(-1,0,0,1,270,0)" xlink:href="#rifle"/>
<path id="rifle" d="m19 216 58 34 1 4 90 51c-5 16 5 18 17 15v12h12l36 35 18-24-48-34h-12l-9-12-147-81-3-5h-5l-4-2zm152 92 4 3c-5 4-5 3 3 3l3 3c-10 3-13 0-10-9z" stroke="#453"/>
<circle cx="135" cy="135" r="92" fill="none" stroke="#fc0" stroke-width="24"/>

<g id="e">
<g id="f">
<g id="g">
<g id="h">
<path id="c" d="m145 31c0 15-20 9-20 25" fill="none" stroke="#453" stroke-width="3"/>
<use transform="rotate(11.25,135,135)" xlink:href="#c"/></g>
<use transform="rotate(22.5,135,135)" xlink:href="#h"/></g>
<use transform="rotate(45,135,135)" xlink:href="#g"/></g>
<use transform="rotate(90,135,135)" xlink:href="#f"/></g>
<use transform="rotate(180 135 135)" xlink:href="#e"/>

<path id="HVO" d="m60 360h11v23h23v-23h11v57h-11v-25h-23v25h-11m51-57h13l14 42 14-42h12l-20 57h-13m64-58c18 0 28 12 28 30s-11 29-28 29-27-12-27-29 9-30 27-30zm0 49c11 0 16-9 16-19s-5-20-16-20-15 10-15 20 4 19 15 19z" fill="#fff"/>

<path d="m97 86c-5 12-11 17-17 23 12 14 7 27 3 33-20 31 4 53 24 53l20 1c4 0 7 3 8 6 1-3 4-6 8-6l20-1c20 0 44-22 24-53-4-6-9-19 3-33-6-6-12-11-17-23-19 5-57 5-76 0" fill="#fc0"/>
<path d="m106 76-6 12c22 4 48 4 70 0l-6-12c-20-5-38-5-58 0z" fill="#fff" stroke="#fc0" stroke-width="2"/>

<g transform="matrix(.1 0 0 .1 121.5 73.4)" stroke-width="10">
<path d="m355 91 8-6 15 2 4 13-16 4-70-80-87-7-11 17m148 46c1 0 11-10 11-10l31 6 16 33-44 8-72-76-67-4-10 15m124 15 14-14 50 9 27 58-72 10-74-74-48-3-11 15m101-15 22-20 67 14 42 84-104 13-76-73-33-1-10 12m92 36-29 30-80 2-53-81h-48l-9 11m207 28-25 24h-63l-52-80h-65l-12 13m205 31-19 17h-48l-54-80h-81l-13 17m201 33-11 11-35 1-54-81-95-1-16 21m-127 16 28-26 88-7 50 76h48l7-14m-206-17 22-21 69-4 51 73h63l10-17m-204-21 19-16 53-1 51 75h81l13-18m-204-29 13-12 33-1 58 80h94l15-21m-282-37-11 12-17-4 5-14 17-2 67 65 82 1 16-19m-149-29-16 14-44-7 15-34 36-5 68 63 64-1 14-19m-127-1-20 19-72-11 26-59 52-8 70 62h47l12-17m-104 22-25 25-104-14 41-85 70-12 69 62h34l9-11" fill="none" stroke="#fc0" stroke-width="6"/>
</g>
<path d="m147 190 14-1c20-1 37-19 20-50-7-14 1-25 4-30-5-5-10-11-14-19-24 5-49 5-72 0-4 8-9 14-14 19 3 5 11 16 4 30-17 31 0 49 20 50l14 1c9 0 12 6 12 6s3-6 12-6z" fill="url(#chess)" stroke="#fff" stroke-width="2"/>
</svg>
