<?xml version="1.0" encoding="UTF-8" standalone="no"?>
<!-- Creator: CorelDRAW X5 -->

<svg
   xmlns:dc="http://purl.org/dc/elements/1.1/"
   xmlns:cc="http://creativecommons.org/ns#"
   xmlns:rdf="http://www.w3.org/1999/02/22-rdf-syntax-ns#"
   xmlns:svg="http://www.w3.org/2000/svg"
   xmlns="http://www.w3.org/2000/svg"
   xmlns:sodipodi="http://sodipodi.sourceforge.net/DTD/sodipodi-0.dtd"
   xmlns:inkscape="http://www.inkscape.org/namespaces/inkscape"
   xml:space="preserve"
   width="597.646"
   height="597.646"
   style="fill-rule:evenodd"
   viewBox="0 0 597.646 597.646"
   id="svg2"
   version="1.1"
   inkscape:version="0.48.1 "
   sodipodi:docname="ZZ1.svg"><metadata
   id="metadata35"><rdf:RDF><cc:Work
       rdf:about=""><dc:format>image/svg+xml</dc:format><dc:type
         rdf:resource="http://purl.org/dc/dcmitype/StillImage" /></cc:Work></rdf:RDF></metadata><sodipodi:namedview
   pagecolor="#ffffff"
   bordercolor="#666666"
   borderopacity="1"
   objecttolerance="10"
   gridtolerance="10"
   guidetolerance="10"
   inkscape:pageopacity="0"
   inkscape:pageshadow="2"
   inkscape:window-width="1280"
   inkscape:window-height="1004"
   id="namedview33"
   showgrid="false"
   fit-margin-top="0"
   fit-margin-left="0"
   fit-margin-right="0"
   fit-margin-bottom="0"
   inkscape:zoom="0.88117835"
   inkscape:cx="342.70176"
   inkscape:cy="190.68502"
   inkscape:window-x="-8"
   inkscape:window-y="-8"
   inkscape:window-maximized="1"
   inkscape:current-layer="svg2" />
 <defs
   id="defs4">
  <style
   type="text/css"
   id="style6">
   
    .str0 {stroke:#373435;stroke-width:2.35294}
    .fil4 {fill:none}
    .fil0 {fill:#373435}
    .fil3 {fill:#FEFEFE}
    .fil2 {fill:#1D5393}
    .fil1 {fill:#D9464E}
    .fil5 {fill:#FEFEFE;fill-rule:nonzero}
   
  </style>
   <clipPath
   id="id0">
    <path
   d="m 300,93.1224 c 114.255,0 206.876,92.6224 206.876,206.878 0,114.255 -92.6212,206.878 -206.876,206.878 -114.255,0 -206.876,-92.6224 -206.876,-206.878 0,-114.255 92.6212,-206.878 206.876,-206.878 z"
   id="path9"
   inkscape:connector-curvature="0" />
   </clipPath>
 </defs>
 <g
   id="Layer_x0020_1"
   transform="translate(-1.177002,-1.177002)">
  <metadata
   id="CorelCorpID_0Corel-Layer" />
  <circle
   class="fil0 str0"
   cx="300"
   cy="300"
   r="298.823"
   id="circle13"
   style="fill:#000000;stroke:none"
   sodipodi:cx="300"
   sodipodi:cy="300"
   sodipodi:rx="298.823"
   sodipodi:ry="298.823"
   d="M 598.823,300 C 598.823,465.03538 465.03538,598.823 300,598.823 134.96462,598.823 1.177002,465.03538 1.177002,300 1.177002,134.96462 134.96462,1.177002 300,1.177002 465.03538,1.177002 598.823,134.96462 598.823,300 z" />
  <g
   id="g15">
  </g>
  <g
   id="g17"
   clip-path="url(#id0)">
   <g
   id="g19">
    <g
   id="_418928528">
     <polygon
   id="_418930448"
   class="fil1"
   points="506.878,231.041 93.1224,231.041 93.1224,93.1224 506.878,93.1224 "
   style="fill:#dd0000;fill-opacity:1" />
     <polygon
   id="_418929680"
   class="fil2"
   points="506.878,368.959 93.1224,368.959 93.1224,231.041 506.878,231.041 "
   style="fill:#003893;fill-opacity:1" />
     <polygon
   id="_418928552"
   class="fil3"
   points="506.878,506.876 93.1224,506.876 93.1224,368.959 506.878,368.959 "
   style="fill:#fefefe" />
    </g>
   </g>
  </g>
  <path
   class="fil4 str0"
   d="m 300,93.1224 c 114.255,0 206.876,92.6224 206.876,206.878 0,114.255 -92.6212,206.878 -206.876,206.878 -114.255,0 -206.876,-92.6224 -206.876,-206.878 0,-114.255 92.6212,-206.878 206.876,-206.878 z"
   id="path25"
   inkscape:connector-curvature="0"
   style="fill:none;stroke:#373435;stroke-width:2.35294008" />
  <ellipse
   class="fil4 str0"
   cx="300"
   cy="300"
   rx="206.87601"
   ry="206.877"
   id="ellipse27"
   sodipodi:cx="300"
   sodipodi:cy="300"
   sodipodi:rx="206.87601"
   sodipodi:ry="206.877"
   style="fill:none;stroke:#373435;stroke-width:2.35294008"
   d="M 506.87601,300 C 506.87601,414.25501 414.25446,506.877 300,506.877 185.74554,506.877 93.123993,414.25501 93.123993,300 93.123993,185.74499 185.74554,93.123001 300,93.123001 414.25446,93.123001 506.87601,185.74499 506.87601,300 z" />
  <path
   class="fil5"
   d="m 36.24,192.554 m -1.73059,6.03412 59.3129,17.0082 -5.50824,19.2094 c -2.08706,7.27882 -3.75294,11.9412 -4.98,13.98 -1.85882,3.14353 -4.61059,5.44824 -8.25176,6.88588 -3.63882,1.43647 -7.82118,1.47882 -12.5306,0.12823 -3.64588,-1.04471 -6.52118,-2.58824 -8.61294,-4.62235 -2.10588,-2.03765 -3.57412,-4.26824 -4.41059,-6.72 -0.825882,-2.43294 -1.17176,-4.77412 -1.02588,-7.00471 0.254118,-3.02 1.15176,-7.24588 2.70824,-12.6729 l 2.23647,-7.80235 -22.3706,-6.41529 3.43294,-11.9741 z m 45.84,26.1035 -16.82,-4.82353 -1.87647,6.54588 c -1.35412,4.72235 -1.95765,7.97176 -1.79176,9.73882 0.165882,1.76588 0.776471,3.28588 1.84,4.57765 1.06941,1.27765 2.47059,2.17294 4.22471,2.67647 2.15412,0.61765 4.11765,0.49294 5.89176,-0.37294 1.75412,-0.85765 3.10235,-2.22 4.00118,-4.05412 0.688235,-1.35765 1.63647,-4.19412 2.87176,-8.50353 l 1.65882,-5.78471 z m -61.1741,34.2341 m -0.328235,6.26941 61.6188,3.22941 -2.39412,45.6788 -10.4306,-0.54588 1.74235,-33.2412 -13.6576,-0.7153 -1.62118,30.9306 -10.3729,-0.54352 1.62118,-30.9306 -16.7718,-0.87883 -1.80353,34.4176 -10.3871,-0.5447 2.45647,-46.8565 z m -2.08353,62.6894 m 61.6929,-6.53294 10.2035,48.0024 -60.3553,12.8294 -2.58941,-12.1847 50.2224,-10.6753 -5.02353,-23.6353 -50.2224,10.6753 -2.59059,-12.1835 60.3553,-12.8282 z m -44.1224,76.3529 m 56.3694,-25.0976 5.66706,12.7306 -23.4118,26.1824 34.263505,-1.81059 5.28824,11.8776 -51.310605,0.0423 c -5.55647,-0.0106 -10.0282,-0.55176 -13.4141,-1.62353 -3.37294,-1.07647 -5.83176,-3.31529 -7.35176,-6.72824 -1.49529,-3.35882 -2.44235,-6.08353 -2.84941,-8.16588 l 8.46588,-3.76941 c 0.612941,1.66118 1.20824,3.14118 1.78706,4.44 1.18,2.65176 2.50706,4.32471 3.97412,5.04118 1.46706,0.71412 4.02471,0.88118 7.66824,0.51647 l 31.2235,-38.7329 z m -29.0424,83.7118 m 51.460005,-34.6659 29.6518,35.3376 -7.9353,6.65882 -21.64589,-25.7965 -10.96,9.19647 10.7118,12.7659 c 2.96353,3.53294 4.98235,6.80941 6.07176,9.85294 1.09059,3.04118 1.15647,6.36118 0.22,9.96118 -0.94589,3.58824 -2.97176,6.69412 -6.08706,9.30706 -3.20235,2.68824 -6.63412,4.16235 -10.3071,4.41176 -3.663535,0.26118 -6.805885,-0.30941 -9.423535,-1.73176 -2.61059,-1.41176 -5.55765,-4.07529 -8.84588,-7.99412 l -18.7176,-22.3071 47.267105,-39.6624 z m -31.327105,42.5459 7.79412,9.28941 c 2.49412,2.97059 4.38235,4.93059 5.67529,5.88941 1.31176,0.96235 2.84941,1.45294 4.62118,1.48471 1.783535,0.0235 3.427065,-0.58706 4.935295,-1.85176 2.18941,-1.83765 3.12941,-3.95765 2.82,-6.36118 -0.30118,-2.39176 -2.04118,-5.47059 -5.19882,-9.23412 l -8.144715,-9.70706 -12.5024,10.4906 z m 28.469405,47.2871 m 64.9071,-29.1118 -18.4282,62.88 -10.92591,-7.93765 14.18591,-46.0918 -39.0471,28.0294 -10.6918,-7.76824 54.1435,-36.9318 10.7635,7.82 z m -9.56588,67.9 m 30.0341,-54.2835 10.7376,4.55765 -16.0494,37.8094 39.06,-28.0424 11.4259,4.85059 -24.1094,56.7988 -10.7259,-4.55294 15.74,-37.0812 -38.7235,27.3247 -11.4647,-4.86588 24.1094,-56.7988 z m 38.3929,81.0047 m 6.38824,0.78471 7.52,-61.2435 12.3624,1.51765 -3.33882,27.1918 28.32119,-24.1247 16.6271,2.04118 -25.9871,21.0259 19.7212,40.3718 -15.9988,-1.96353 -13.2965,-30.8129 -11.2953,9.00588 -2.27294,18.5082 -12.3624,-1.51765 z m 66.6376,6.11176 m 6.23059,-0.76471 -7.52,-61.2435 45.4024,-5.57529 1.27294,10.3671 -33.0388,4.05647 1.66706,13.5741 30.7424,-3.77412 1.26588,10.3094 -30.7424,3.77529 2.04706,16.6682 34.20709,-4.2 1.26824,10.3235 -46.5718,5.71882 z m 126.31799,-34.5765 m 23.6835,-45.2471 12.0106,-4.00118 c 2.46,6.54 2.91177,12.3918 1.35059,17.5741 -1.55882,5.16353 -5.02471,9.70588 -10.3824,13.5988 -6.62471,4.81294 -13.7224,6.50706 -21.2729,5.08588 -7.55765,-1.43412 -14.1976,-6.07529 -19.8976,-13.9212 -6.03765,-8.30941 -8.57412,-16.3224 -7.62941,-24.0412 0.95295,-7.70588 4.91882,-14.1035 11.9153,-19.1871 6.10235,-4.43294 12.3741,-6.23647 18.8118,-5.39294 3.82353,0.47176 7.75059,2.30824 11.7929,5.47882 l -8.25176,9.63647 c -2.46471,-2.16941 -5.18235,-3.32 -8.15529,-3.45294 -2.95999,-0.13882 -5.77882,0.77176 -8.45294,2.71412 -3.69529,2.68588 -5.74235,6.19765 -6.10941,10.5318 -0.37647,4.32118 1.59647,9.45765 5.92118,15.4094 4.58471,6.31059 8.98,9.98941 13.2,11.0071 4.21765,1.03882 8.14118,0.23059 11.7671,-2.40471 2.68471,-1.95059 4.36824,-4.47059 5.05647,-7.58118 0.69765,-3.09882 0.13059,-6.78824 -1.67412,-11.0541 z m 33.8271,1.28588 m 4.11882,-4.73765 -46.5682,-40.4812 13.1106,-15.0824 c 4.96706,-5.71412 8.44706,-9.23529 10.4224,-10.5647 3.01294,-2.06471 6.48118,-2.98941 10.3882,-2.75294 3.90588,0.23529 7.71294,1.96471 11.4106,5.17882 2.86235,2.48824 4.81647,5.10118 5.85294,7.82941 1.04706,2.73647 1.43529,5.37882 1.15765,7.95412 -0.28,2.55412 -0.95647,4.82235 -2.03176,6.78118 -1.50706,2.63059 -4.10588,6.08118 -7.80941,10.3424 l -5.32588,6.12588 17.5647,15.2682 -8.17176,9.40118 z m -30.5141,-43.0294 13.2059,11.4788 4.46706,-5.13882 c 3.22353,-3.70824 5.14353,-6.39765 5.74,-8.06941 0.59648,-1.67059 0.68471,-3.30588 0.26706,-4.92588 -0.42941,-1.61059 -1.32118,-3.01412 -2.69765,-4.21176 -1.69176,-1.47059 -3.52471,-2.18706 -5.49765,-2.15176 -1.95294,0.0365 -3.74941,0.7 -5.34,1.98353 -1.19647,0.93882 -3.25529,3.10941 -6.19529,6.49176 l -3.94941,4.54353 z m 70.53061,-5.67529 m -52.6376,-32.8341 21.5141,-44.1082 55.4588,27.0482 -5.46119,11.1965 -46.14819,-22.5082 -10.5929,21.7176 46.1482,22.5082 -5.46001,11.1953 -55.4588,-27.0494 z m 83.13879,-33.5376 m -14.3941,-49 5.86001,-11.2212 c 6.31294,2.99529 10.7024,6.89059 13.1788,11.7035 2.46587,4.79647 3.12824,10.4718 1.97882,16.9929 -1.42235,8.06588 -5.35176,14.2141 -11.7706,18.4365 -6.43176,4.21882 -14.4329,5.49294 -23.9835,3.80941 -10.1153,-1.78471 -17.5059,-5.78588 -22.1882,-11.9941 -4.66706,-6.20588 -6.25882,-13.5624 -4.75648,-22.08 1.30941,-7.42706 4.56824,-13.0812 9.78472,-16.9459 3.07881,-2.31765 7.17881,-3.72471 12.2906,-4.25176 l 0.75647,12.6635 c -3.27882,0.15176 -6.03412,1.21176 -8.26353,3.18235 -2.22706,1.95529 -3.62118,4.56941 -4.19529,7.82353 -0.79294,4.49882 0.17411,8.44706 2.92,11.82 2.73176,3.37059 7.71882,5.69412 14.9635,6.97176 7.68235,1.35412 13.3988,0.94823 17.1424,-1.25176 3.75529,-2.18235 6.01529,-5.48941 6.79412,-9.90353 0.57647,-3.26941 0.0365,-6.25176 -1.62941,-8.96706 -1.65176,-2.71294 -4.62118,-4.97294 -8.88235,-6.78824 z m 27.9435,-22.5447 m -0.56117,-6.41176 -61.4682,5.37765 -1.08588,-12.4082 27.2918,-2.38706 -29.4859,-22.6859 -1.46,-16.6882 25.9694,21.0471 35.3894,-27.6835 1.40471,16.0576 -27.3741,19.4106 11.1576,9.17765 18.5753,-1.62588 1.08588,12.4082 z m -5.71529,-67.7176 m -2.24941,-5.86118 -57.6059,22.1129 -16.3918,-42.7035 9.75059,-3.74353 11.9282,31.0753 12.7682,-4.90118 -11.1,-28.9165 9.69765,-3.72235 11.1,28.9165 15.6788,-6.01882 -12.3518,-32.1753 9.71059,-3.72824 16.8153,43.8047 z"
   id="path29"
   inkscape:connector-curvature="0"
   style="fill:#fefefe;fill-rule:nonzero" />
  <path
   class="fil5"
   d="m 109.792,170.501 -12.9718,-9.42353 -9.49882,13.0753 -8.96118,-6.51059 9.49882,-13.0765 -12.9706,-9.42353 6.33412,-8.71765 12.9706,9.42471 9.52471,-13.1106 8.96118,6.51059 -9.52471,13.1106 12.9706,9.42353 -6.33294,8.71765 z m 4.20353,-85.5553 20.2071,-14.1482 c 4.00118,-2.80235 7.10588,-4.73059 9.30941,-5.76588 2.19647,-1.04588 4.43647,-1.58 6.73176,-1.60824 2.29412,-0.02824 4.55765,0.474118 6.82941,1.51412 2.26353,1.02824 4.16588,2.64235 5.69059,4.82 1.65529,2.36471 2.54471,4.98706 2.65882,7.85529 0.10118,2.87412 -0.59059,5.56824 -2.07529,8.08118 3.69765,-1.25647 7.14588,-1.39059 10.3012,-0.390588 3.17529,1.00353 5.77882,2.96824 7.82235,5.88706 1.60824,2.29412 2.64353,4.90118 3.09647,7.82824 0.44588,2.915288 0.20588,5.679998 -0.73529,8.268238 -0.94118,2.58706 -2.66353,4.98588 -5.16824,7.19529 -1.57059,1.36353 -5.59529,4.35647 -12.0706,8.96118 l -17.2047,12.0471 -35.3929,-50.544698 z m 16.1071,1.26118 8.18353,11.6871 6.68471,-4.68118 c 3.97765,-2.78588 6.40706,-4.57412 7.28941,-5.36824 1.60118,-1.42 2.55882,-2.98353 2.85882,-4.68471 0.29882,-1.7 -0.12941,-3.36471 -1.27529,-5 -1.09529,-1.56471 -2.40941,-2.54 -3.95176,-2.91529 -1.55529,-0.367059 -3.24941,-0.05647 -5.08471,0.930588 -1.09412,0.590588 -4.04235,2.56706 -8.84353,5.92824 l -5.86118,4.10353 z m 14.0741,20.1012 9.46,13.5094 9.43882,-6.60941 c 3.68353,-2.57882 5.94824,-4.30471 6.78824,-5.20824 1.32824,-1.33294 2.08588,-2.88118 2.29765,-4.60824 0.20353,-1.73765 -0.31882,-3.51176 -1.57176,-5.30118 -1.06353,-1.51765 -2.33765,-2.53647 -3.80941,-3.08471 -1.48353,-0.54 -3.08588,-0.575294 -4.81176,-0.08471 -1.72706,0.489412 -4.91647,2.37176 -9.55294,5.61765 l -8.23882,5.76941 z m 37.6012,-29.7471 c -2.25412,-5.87412 -3.27294,-11.1318 -3.04471,-15.7882 0.19176,-3.42941 0.96235,-6.75647 2.33294,-9.96 1.37529,-3.19059 3.19294,-5.87294 5.45529,-8.03529 3.00824,-2.90824 6.85059,-5.24471 11.5459,-7.04706 8.48941,-3.25882 16.2847,-3.23529 23.4047,0.07882 7.11529,3.30118 12.4753,9.64588 16.0729,19.0224 3.57412,9.30824 3.82824,17.5506 0.79176,24.7482 -3.04353,7.18471 -8.79529,12.4094 -17.2447,15.6518 -8.57059,3.29059 -16.3882,3.29059 -23.4459,0.0153 -7.06588,-3.29059 -12.3518,-9.52471 -15.8682,-18.6859 z m 11.8282,-4.98588 c 2.50235,6.51882 5.91765,10.8847 10.2141,13.0988 4.30941,2.20824 8.77647,2.41647 13.4165,0.635294 4.62706,-1.77529 7.79765,-4.90118 9.48824,-9.39765 1.68235,-4.47765 1.25059,-10.0506 -1.31294,-16.7306 -2.53294,-6.59882 -5.87176,-10.9659 -10.0059,-13.1176 -4.14353,-2.13294 -8.61529,-2.27882 -13.4035,-0.441176 -4.80118,1.84353 -8.03059,4.97529 -9.70706,9.38941 -1.66235,4.40824 -1.23882,9.92353 1.31059,16.5635 z m 74.3388,-52.3553 12.3353,-1.51529 4.76,38.7718 c 0.62118,5.06118 0.64471,9.02471 0.0953,11.8565 -0.76,3.71294 -2.57647,6.84471 -5.46235,9.38471 -2.88471,2.55412 -6.90353,4.13294 -12.0506,4.76471 -6.04706,0.743529 -10.9012,-0.368235 -14.5835,-3.36118 -3.66588,-2.98118 -5.93059,-7.74 -6.74706,-14.2824 l 11.4847,-2.77176 c 0.57295,3.49059 1.39059,5.90824 2.45412,7.25412 1.60941,2.03176 3.78353,2.88 6.50706,2.54471 2.75294,-0.336471 4.60941,-1.36235 5.55529,-3.08471 0.94824,-1.70824 1.11882,-5.04353 0.50942,-10.0059 l -4.85765,-39.5553 z m 69.58,39.2494 11.7718,4.65412 c -2.31882,6.59176 -5.73294,11.3647 -10.2624,14.3318 -4.51176,2.95294 -10.0871,4.20588 -16.6929,3.74353 -8.16941,-0.570588 -14.6965,-3.83529 -19.5659,-9.77882 -4.86824,-5.95647 -6.97176,-13.78 -6.29529,-23.4541 0.71647,-10.2471 3.92471,-18.0141 9.61059,-23.32 5.68353,-5.29176 12.8329,-7.64353 21.46,-7.04 7.52471,0.527059 13.4882,3.17529 17.8776,7.96118 2.62471,2.81882 4.45294,6.74824 5.51294,11.7765 l -12.5165,2.07765 c -0.49294,-3.24588 -1.83529,-5.87529 -4.02824,-7.88471 -2.17765,-2.01059 -4.92353,-3.12471 -8.21882,-3.35529 -4.55765,-0.318824 -8.38353,1.05529 -11.4506,4.14 -3.06588,3.06824 -4.85647,8.27176 -5.36941,15.6094 -0.54471,7.78235 0.45882,13.4259 3.03647,16.9188 2.56353,3.50471 6.08824,5.40824 10.56,5.72118 3.31059,0.231765 6.22235,-0.616471 8.74706,-2.55647 2.52588,-1.92588 4.46353,-5.11765 5.82353,-9.54471 z m 16.2412,26.0541 22.1129,-57.6059 11.6282,4.46353 -9.81882,25.5776 33.3165,-16.5576 15.6388,6.00353 -30.3012,14.1141 9.36824,43.9447 -15.0482,-5.77647 -5.44588,-33.1153 -13.14,6.00706 -6.68235,17.4082 -11.6282,-4.46353 z m 99.5871,53.0341 -11.1094,-7.77765 3.62941,-14.5765 -20.2071,-14.1494 -12.2082,8.56941 -10.8271,-7.58118 55.0812,-36.7588 10.7918,7.55647 -15.1506,64.7176 z m -4.79412,-33.1541 6.16824,-23.6365 -19.9612,13.98 13.7929,9.65647 z m 33.0988,54.9376 12.9718,-9.42471 -9.5,-13.0741 8.96118,-6.51176 9.5,13.0765 12.9706,-9.42471 6.33294,8.71647 -12.9706,9.42471 9.52471,13.1106 -8.96118,6.51059 -9.52471,-13.1106 -12.9718,9.42353 -6.33294,-8.71647 z"
   id="path31"
   inkscape:connector-curvature="0"
   style="fill:#fefefe;fill-rule:nonzero" />
 </g>
</svg>